<svg xmlns="http://www.w3.org/2000/svg" viewBox="0 0 183.49 177.67"><defs><style>.cls-1{fill:#75cac6;}.cls-2{fill:#53b748;}.cls-3{fill:#579b94;}.cls-4{fill:#37722b;}.cls-5{fill:#51a343;}.cls-6{fill:#fff;}</style></defs><title>Artboard 4</title><g id="Objects"><circle class="cls-1" cx="86.03" cy="88.84" r="73.98"/><path class="cls-2" d="M113.3,45c-.95-.95-1.66,1.9-.66,2.19S114.79,46.53,113.3,45Z"/><path class="cls-2" d="M61.1,149.94c-.5-2.83-4.16-2.33-6-1.5s-1.5,4.82-.93,7.18a73.39,73.39,0,0,0,12.28,4.57,2.18,2.18,0,0,0-.37-1.44C65.15,157.15,61.59,152.76,61.1,149.94Z"/><path class="cls-2" d="M146,76c3.33.17,8.15-4.49,7.48-6.32s-4.66-1-5.82-3.82-3-5.15-1.83-5.65,3.49,7.31,10.55,5.9l0-.06c-.15-.41-1.1-3-2.31-6.17A73.75,73.75,0,0,0,146,45.52c.47.7,2.36,6.83-.12,7s-3-6-3-6.82-2.39-6.86-2.44-7l-.3-.32-1.59-1.65a74.36,74.36,0,0,0-13.94-11c-.29.85.23,2.33-.35,3-.83,1-3.33,3.49-6.15,3.33s-4.16-1.5-2.49-2.49,2.62-.33,3.33-3.49c.65-2.88,0-3.51-.17-3.59a73.44,73.44,0,0,0-9.78-4c-1.19,3.1-1.53,6.09,1.13,6.25s4.16.83,3.32,2.83-2,2.33-3.82,3.49-3.82,2.83-4.16,1.16-2.33-4.32-3-6.15-.83-3.66-2.16-2-2.91,3.16-4.2,5,1.37,2,3.87,3,3,2.66,2.33,3.82,1.09,1.55,1.66,2.83c.4.88,1.33,2.66,0,3.49s-5.65-1.66-7-.83-.33,5.82-.83,6.82,3.38,1.33,4.27,2.16,4.21-1,5-2.33.67-2.83,2.33-4.32,3.16-.83,4.49-1.33,0-1.33,1.33-.5S120.28,46,119.95,47s-2.66.33-2.83,1.66,1.16,1.91,2,1.87,2.16-2.2,3-2.7,2.49,1.59,4.49,2.71,2.66-3.37,3.66-4,8.31-.5,8.48.5-6.82-.17-7.65,2,2.66,2.83,4.49,4.16,3,6,3.16,9.31S142.72,75.79,146,76Z"/><path class="cls-2" d="M99.5,51.35c-1.24-.38-3.25.5-3.7,3.49s-2.95,3.66-4.61,6S88.86,72.64,89.69,76s5.49,8.47,8.64,9a41.66,41.66,0,0,0,11.14,0c3-.5,6,2.66,6,5.65s3.33,6.15,3.16,8.81-2.32,8.15,0,12.8,5.65,9,5.81,10.47,6.65-.66,9.81-4.49,3.33-3.49,4.32-7.48,3.16-5.49,3.49-7.65a29.12,29.12,0,0,0,0-7.65c-.33-3.16,5.82-10.47,6.15-13.3s-3.49-2.83-5-5-6.65-12.14-7.15-15.3S129.59,58,127.93,57s-4,.83-6.48-.83-7.15-6.32-9.31-6.32S101.66,52,99.5,51.35Z"/><path class="cls-2" d="M33.66,83.25A7.86,7.86,0,0,1,33,88.84c-1.33,2.41-1.83,4.41,0,8.4s4.49,5.32,6.48,9,1.66,9.48,2,18.12,3.33,15.46,8.31,17.46-1.83-3-1.33-6.32.33-5.15,2.16-7.65,2.94-1.5,5.21-6,1.6-6,4.27-7.48,6.48.17,7.31-5-2.49-3.66,1.16-8.31-.17-5.49-3.33-7.32-6.32-2-7.81-3.82-1.33-1.33-4-4.16-4.66-2.49-8.15-4.82-6.51-4.16-8.41-2.66S33.42,82.3,33.66,83.25Z"/><path class="cls-2" d="M46.14,26.52q-2.61,1.68-5.07,3.56c.59,2.67-2.09,4-2.92,5.14s.17,4.16-.66,4.32-1.66-3.32-1.77-4.94A74,74,0,0,0,16,65a40,40,0,0,1,2.55,8.83c.5,3,5.15,1.33,6.65,3.66s4.32,4.32,6.15,5.49,0-1.16-1.16-3.82-2.66-5.65-2.33-7.57-1.66-2.57-3-1.07S22.69,72.3,22,68.81s3.16-4,5.15-4.82,3,.66,4.32,1.83S32.67,65,33,61.33s6.15-10.64,8-14,3.82-4.58,4.32-6.4,4.49-1,7.82.17,3.16-1,1.83-2.66-2.49-2.16-1.16-3.33-.33-2.16-1.66-3.82-1.33-4-1.83-4.71-2.49,2.39-4.15,2.55S45.69,26.82,46.14,26.52Z"/><path class="cls-2" d="M59.93,19.6a20.5,20.5,0,0,1,3,3.83c1.16,2,3.32,3.49,4.49,0a70.36,70.36,0,0,1,2.76-6.86A73.43,73.43,0,0,0,59.93,19.6Z"/><path class="cls-3" d="M89.32,14.94c2.14,1.61,35.19,27.28,32.75,70.77C119.54,130.65,78,150.9,54.18,155.62A74,74,0,1,0,89.32,14.94Z"/><path class="cls-4" d="M142.06,108.54c-1.33,2.49-4.15,5.65-3.49,7.31s1.5,1.83,3.49-1.33a36,36,0,0,0,4.49-10.31c.5-2.66,1.33-5.82,0-4.32s-4.49,4.32-4.49,6.48Z"/><path class="cls-4" d="M119.29,154.94c-.77-.33-3,.28-4.66-.84-2.71-1.79-6,.5-9.81.7s-8.64.3-12.63,2.3a48.21,48.21,0,0,1-7.81,3.16c-2.51.91-2.45,1.75-2.15,2.48q1.9.1,3.81.1A73.68,73.68,0,0,0,119.29,154.94Z"/><path class="cls-4" d="M142.06,103.06a29.12,29.12,0,0,0,0-7.65c-.33-3.16,5.82-10.47,6.15-13.3s-3.49-2.83-5-5-6.65-12.14-7.15-15.3S129.59,58,127.93,57s-4,.83-6.48-.83c-1.2-.8-2.91-2.3-4.59-3.63a79.2,79.2,0,0,1,5.22,33.17,68.3,68.3,0,0,1-4.51,21.12,11.25,11.25,0,0,0,1.07,5.37c2.32,4.65,5.65,9,5.81,10.47s6.65-.66,9.81-4.49,3.33-3.49,4.32-7.48S141.73,105.22,142.06,103.06Z"/><path class="cls-5" d="M100.33,24.09c-.2.24-.4.48-.61.72,1.79,2,3.7,4.31,5.61,6.9-.57-1.66-2.24-4-2.83-5.62C101.83,24.25,101.66,22.42,100.33,24.09Z"/><path class="cls-4" d="M146,76c3.33.17,8.15-4.49,7.48-6.32s-4.66-1-5.82-3.82-3-5.15-1.83-5.65,3.49,7.29,10.54,5.9l-.16-.48c-.33-.89-1.1-3-2.05-5.48-.15-.35-.3-.69-.45-1q-.53-1.22-1.11-2.41L152,55.43q-.58-1.15-1.2-2.27c-.21-.39-.42-.77-.64-1.15-.47-.82-1-1.62-1.46-2.42-.18-.28-.35-.58-.53-.86q-1.06-1.63-2.19-3.21h0c.47.7,2.35,6.83-.12,7s-3-6-3-6.82-2.22-6.41-2.42-6.92c-.3-.32-.59-.65-.89-1l-.35-.36c-.43-.44-.88-.87-1.32-1.31q-1-.94-1.93-1.84l-1.09-1c-.75-.66-1.53-1.31-2.31-1.94l-.79-.65c-1-.8-2-1.56-3.1-2.31-.41-.29-.83-.56-1.25-.84-.7-.47-1.4-.93-2.11-1.38l-.72-.44c-.28.85.23,2.31-.35,3-.83,1-3.33,3.49-6.15,3.33s-4.16-1.5-2.49-2.49,2.62-.33,3.33-3.49c.57-2.53.11-3.32-.1-3.53-.54-.27-1.08-.54-1.63-.8l-.38-.18q-3-1.38-6.14-2.48l-.58-.2L109,18.52c-1.19,3.09-1.51,6.06,1.14,6.23s4.16.83,3.32,2.83-2,2.33-3.82,3.49c-1.26.8-2.59,1.84-3.41,1.86a91.34,91.34,0,0,1,5.94,9.48l.13,0c1.33-.5,0-1.33,1.33-.5S120.28,46,119.95,47s-2.66.33-2.83,1.66,1.16,1.91,2,1.87,2.16-2.2,3-2.7,2.49,1.59,4.49,2.71,2.66-3.37,3.66-4,8.31-.5,8.48.5-6.82-.17-7.65,2,2.66,2.83,4.49,4.16,3,6,3.16,9.31S142.72,75.79,146,76Z"/><path class="cls-4" d="M54.37,155.71c.78.37,1.58.73,2.38,1.07l.68.29q1.27.53,2.57,1l.51.19c.86.32,1.73.62,2.6.9l.23.08q1.44.46,2.9.86l.2.06a2.18,2.18,0,0,0-.37-1.44c-.59-1-2.22-3.13-3.47-5.26-3,.91-5.81,1.62-8.43,2.14Z"/><path class="cls-6" d="M70.7,63.09a4.71,4.71,0,0,0-7.47-5.27,8.39,8.39,0,0,0-16,3,6,6,0,1,0,1.42,10.77,4.46,4.46,0,0,0,8.45-.33,6,6,0,0,0,7.87,1,5.61,5.61,0,0,0,5.74-9.22Z"/><path class="cls-6" d="M46.67,123.23A4.71,4.71,0,0,0,39.2,118a8.39,8.39,0,0,0-16,3,6,6,0,1,0,1.42,10.77,4.46,4.46,0,0,0,8.45-.33,6,6,0,0,0,7.87,1,5.61,5.61,0,0,0,5.73-9.22Z"/><path class="cls-6" d="M127,135.92a4.71,4.71,0,0,0-7.47-5.27,8.39,8.39,0,0,0-16,3A6,6,0,1,0,105,144.45a4.46,4.46,0,0,0,8.45-.33,6,6,0,0,0,7.87,1,5.61,5.61,0,0,0,5.73-9.22Z"/><path class="cls-6" d="M169.91,85.58a4.71,4.71,0,0,0-7.47-5.27,8.39,8.39,0,0,0-16,3,6,6,0,1,0,1.42,10.77,4.46,4.46,0,0,0,8.45-.33,6,6,0,0,0,7.87,1,5.61,5.61,0,0,0,5.73-9.22Z"/></g></svg>