<svg xmlns="http://www.w3.org/2000/svg" viewBox="0 0 181.98 178.85"><defs><style>.cls-1{fill:#f48237;}.cls-2{fill:#f9b24e;}.cls-3{fill:#f7a456;}.cls-4{fill:#ee563d;}.cls-5{fill:#d36229;}.cls-6{fill:#d68627;}.cls-7{fill:#d35b18;}.cls-8{fill:#d67422;}.cls-9{fill:#d3321c;}.cls-10{fill:#d38322;}.cls-11{fill:#c65414;}.cls-12{fill:#e27820;}.cls-13{fill:#bf3725;}.cls-14{fill:#d3892f;}.cls-15{fill:#b24e1d;}</style></defs><title>Artboard 3</title><g id="Objects"><circle class="cls-1" cx="90.99" cy="94.62" r="63.18"/><path class="cls-2" d="M121.22,150.11a63.17,63.17,0,1,0-86.65-27S61.69,145.29,121.22,150.11Z"/><path class="cls-1" d="M143.43,129.86A63.17,63.17,0,1,0,31.25,115.23C82.08,136.59,122.68,133.47,143.43,129.86Z"/><path class="cls-3" d="M91,31.44A63.18,63.18,0,0,0,27.81,94.62q0,2.35.17,4.66c3.44,3.61,10.26,8.92,25.94,12.59,15.94,3.73,18.94,3.39,41.35,10.17s31.41,1.6,41.4,2a49.74,49.74,0,0,0,10.51-.55A63.2,63.2,0,0,0,91,31.44Z"/><path class="cls-4" d="M91,31.44a63.18,63.18,0,0,0-63.11,60.4h0S65.33,121.53,150,117.21h0A63.21,63.21,0,0,0,91,31.44Z"/><path class="cls-2" d="M91,31.44a63.19,63.19,0,0,0-62.26,52.4c6.94,3.39,53,24,125.43,11,0-.09,0-.18,0-.26A63.18,63.18,0,0,0,91,31.44Z"/><path class="cls-1" d="M36.54,62.57h0s42,28.8,117.46,27.49A63.18,63.18,0,0,0,36.54,62.57Z"/><path class="cls-3" d="M38.72,59.14s31.64,11.17,63.83,11.09c28.27-.06,42.13,4.11,49.09,6.66A63.19,63.19,0,0,0,38.72,59.14Z"/><path class="cls-4" d="M105.81,65.63c21.71,0,33.14,3.32,43.47,4.6a63.19,63.19,0,0,0-107-15.85C57.43,60.21,84.11,65.63,105.81,65.63Z"/><path class="cls-2" d="M145.44,62.57a63.2,63.2,0,0,0-87.15-22h0s26.39,14.87,87.15,22Z"/><path class="cls-1" d="M63.92,37.53c13.67,6.59,35.16,13.32,71.28,12a63.21,63.21,0,0,0-71.28-12Z"/><path class="cls-5" d="M96.6,31.71c.25.49,42.73,82.87-28.28,121.89A63.17,63.17,0,1,0,96.6,31.71Z"/><path class="cls-6" d="M154,90.41c0-.7-.09-1.39-.16-2.08,0-.42-.1-.83-.15-1.24-.07-.61-.14-1.23-.23-1.84-.07-.44-.15-.88-.22-1.32s-.19-1.14-.3-1.71-.2-.91-.3-1.36-.24-1.08-.37-1.61-.24-.92-.37-1.38-.28-1-.44-1.54-.29-.93-.44-1.39-.33-1-.5-1.47-.34-.93-.52-1.39-.36-.93-.55-1.4-.39-.94-.6-1.4-.39-.88-.6-1.32-.44-.94-.67-1.4-.42-.83-.64-1.24-.5-.94-.76-1.41-.44-.77-.67-1.16-.56-1-.85-1.42-.45-.7-.67-1.05-.63-1-1-1.44l-.66-.93c-.35-.5-.71-1-1.08-1.47l-.62-.79c-.41-.52-.81-1-1.23-1.54l-.5-.58c-.48-.56-1-1.11-1.45-1.65l-.21-.22A63.43,63.43,0,0,0,121.85,39.5l-.12-.07q-1.17-.65-2.37-1.26l-.22-.11q-1.18-.59-2.38-1.12l-.28-.12q-1.19-.53-2.41-1l-.31-.12q-1.21-.47-2.45-.89L111,34.7q-1.24-.41-2.51-.78l-.31-.09q-1.28-.36-2.58-.67l-.28-.06q-1.32-.31-2.67-.56l-.23,0c-.92-.17-1.84-.32-2.77-.45l-.13,0q-1.45-.2-2.91-.33c.24.46,36.45,70.7-13.86,112.19a234.92,234.92,0,0,0,38.48,6.22c.75-.41,1.49-.84,2.22-1.28l.71-.44q.89-.55,1.76-1.13l.53-.35q1.07-.73,2.11-1.5l.63-.48q.81-.62,1.6-1.26l.57-.46q1-.82,1.95-1.69l.52-.48q.75-.7,1.49-1.42l.55-.55q.91-.92,1.79-1.87l.39-.44q.71-.8,1.4-1.62l.51-.62c.55-.68,1.09-1.36,1.61-2.06l.23-.31q.69-.93,1.35-1.89l.45-.66c.45-.67.89-1.35,1.31-2l.15-.23c.46-.75.9-1.52,1.32-2.3l.37-.68q.53-1,1-2l.22-.44c.38-.8.75-1.61,1.1-2.43l.28-.68q.42-1,.81-2l.22-.58q.46-1.27.86-2.56c.07-.21.13-.42.19-.63q.32-1.07.61-2.15l.18-.66q.34-1.33.62-2.68c0-.18.07-.36.1-.53q.23-1.14.41-2.3c0-.24.08-.48.11-.72.14-.92.26-1.85.35-2.79,0-.12,0-.24,0-.35.08-.84.14-1.68.19-2.53,0-.25,0-.5,0-.76,0-1,.07-1.92.07-2.89s0-2.12-.08-3.17C154.07,91.11,154,90.76,154,90.41Z"/><path class="cls-7" d="M154,90.41c0-.7-.09-1.39-.16-2.08,0-.42-.1-.83-.15-1.24-.07-.61-.14-1.23-.23-1.84-.07-.44-.15-.88-.22-1.32s-.19-1.14-.3-1.71-.2-.91-.3-1.36-.24-1.08-.37-1.61-.24-.92-.37-1.38-.28-1-.44-1.54-.29-.93-.44-1.39-.33-1-.5-1.47-.34-.93-.52-1.39-.36-.93-.55-1.4-.39-.94-.6-1.4-.39-.88-.6-1.32-.44-.94-.67-1.4-.42-.83-.64-1.24-.5-.94-.76-1.41-.44-.77-.67-1.16-.56-1-.85-1.42-.45-.7-.67-1.05-.63-1-1-1.44l-.66-.93c-.35-.5-.71-1-1.08-1.47l-.62-.79c-.41-.52-.81-1-1.23-1.54l-.5-.58c-.48-.56-1-1.11-1.45-1.65l-.21-.22A63.43,63.43,0,0,0,121.85,39.5l-.12-.07q-1.17-.65-2.37-1.26l-.22-.11q-1.18-.59-2.38-1.12l-.28-.12q-1.19-.53-2.41-1l-.31-.12q-1.21-.47-2.45-.89L111,34.7q-1.24-.41-2.51-.78l-.31-.09q-1.28-.36-2.58-.67l-.28-.06q-1.32-.31-2.67-.56l-.23,0c-.92-.17-1.84-.32-2.77-.45l-.13,0q-1.45-.2-2.91-.33c.21.41,30,58.16-1.92,99.86a182.48,182.48,0,0,0,48.75-1.71q.74-1.1,1.44-2.25l.42-.7q.51-.86,1-1.74l.41-.75q.59-1.09,1.13-2.21L148,122c.39-.82.77-1.65,1.13-2.49l.32-.76q.39-.94.75-1.89c.1-.27.2-.53.3-.8.29-.82.58-1.64.84-2.48l.05-.17c.28-.89.53-1.78.76-2.69.07-.27.13-.54.2-.8q.25-1,.47-2c.06-.28.12-.55.17-.83.18-.9.35-1.8.49-2.72v-.08c.14-.94.26-1.89.36-2.84,0-.28.05-.56.08-.84q.1-1.07.16-2.14c0-.29,0-.57,0-.86,0-1,.07-1.95.07-2.93s0-2.12-.08-3.17C154.07,91.11,154,90.76,154,90.41Z"/><path class="cls-8" d="M154,90.41c0-.7-.09-1.39-.16-2.08,0-.42-.1-.83-.15-1.24-.07-.61-.14-1.23-.23-1.84-.07-.44-.15-.88-.22-1.32s-.19-1.14-.3-1.71-.2-.91-.3-1.36-.24-1.08-.37-1.61-.24-.92-.37-1.38-.28-1-.44-1.54-.29-.93-.44-1.39-.33-1-.5-1.47-.34-.93-.52-1.39-.36-.93-.55-1.4-.39-.94-.6-1.4-.39-.88-.6-1.32-.44-.94-.67-1.4-.42-.83-.64-1.24-.5-.94-.76-1.41-.44-.77-.67-1.16-.56-1-.85-1.42-.45-.7-.67-1.05-.63-1-1-1.44l-.66-.93c-.35-.5-.71-1-1.08-1.47l-.62-.79c-.41-.52-.81-1-1.23-1.54l-.5-.58c-.48-.56-1-1.11-1.45-1.65l-.21-.22A63.43,63.43,0,0,0,121.85,39.5l-.12-.07q-1.17-.65-2.37-1.26l-.22-.11q-1.18-.59-2.38-1.12l-.28-.12q-1.19-.53-2.41-1l-.31-.12q-1.21-.47-2.45-.89L111,34.7q-1.24-.41-2.51-.78l-.31-.09q-1.28-.36-2.58-.67l-.28-.06q-1.32-.31-2.67-.56l-.23,0c-.92-.17-1.84-.32-2.77-.45l-.13,0q-1.45-.2-2.91-.33c.2.39,26.28,51,3.49,91.66,18.94,4.71,27.35.3,36.58.71a49.8,49.8,0,0,0,10.49-.55c.23-.45.47-.89.69-1.34L148,122c.39-.81.75-1.62,1.11-2.45l.23-.53q.51-1.22,1-2.46l.17-.48c.3-.82.58-1.65.84-2.49l.06-.19c.27-.87.52-1.75.75-2.64l.14-.55q.33-1.31.61-2.63l.1-.51c.18-.9.34-1.8.48-2.72l0-.1c.14-.93.26-1.87.36-2.82,0-.18,0-.36.06-.54q.14-1.38.21-2.78c0-.18,0-.35,0-.53,0-1,.07-1.95.07-2.93s0-2.12-.08-3.17C154.07,91.11,154,90.76,154,90.41Z"/><path class="cls-9" d="M154,90.41c0-.7-.09-1.39-.16-2.08,0-.42-.1-.83-.15-1.24-.07-.61-.14-1.23-.23-1.84-.07-.44-.15-.88-.22-1.32s-.19-1.14-.3-1.71-.2-.91-.3-1.36-.24-1.08-.37-1.61-.24-.92-.37-1.38-.28-1-.44-1.54-.29-.93-.44-1.39-.33-1-.5-1.47-.34-.93-.52-1.39-.36-.93-.55-1.4-.39-.94-.6-1.4-.39-.88-.6-1.32-.44-.94-.67-1.4-.42-.83-.64-1.24-.5-.94-.76-1.41-.44-.77-.67-1.16-.56-1-.85-1.42-.45-.7-.67-1.05-.63-1-1-1.44l-.66-.93c-.35-.5-.71-1-1.08-1.47l-.62-.79c-.41-.52-.81-1-1.23-1.54l-.5-.58c-.48-.56-1-1.11-1.45-1.65l-.21-.22A63.43,63.43,0,0,0,121.85,39.5l-.12-.07q-1.17-.65-2.37-1.26l-.22-.11q-1.18-.59-2.38-1.12l-.28-.12q-1.19-.53-2.41-1l-.31-.12q-1.21-.47-2.45-.89L111,34.7q-1.24-.41-2.51-.78l-.31-.09q-1.28-.36-2.58-.67l-.28-.06q-1.32-.31-2.67-.56l-.23,0c-.92-.17-1.84-.32-2.77-.45l-.13,0q-1.45-.2-2.91-.33c.19.36,23.3,45.21,7,84.4a295.78,295.78,0,0,0,46.38,1.1l.13-.34c.19-.5.37-1,.54-1.52s.3-.86.43-1.29.31-1,.46-1.5.27-.92.39-1.38.26-1,.38-1.48.23-1,.34-1.47.21-1,.3-1.44.19-1.05.28-1.58.16-.92.22-1.38.15-1.16.22-1.74c.05-.43.11-.85.15-1.28.06-.67.11-1.34.15-2,0-.35.06-.71.07-1.06.05-1,.08-2.07.08-3.11s0-2.12-.08-3.17C154.07,91.11,154,90.76,154,90.41Z"/><path class="cls-10" d="M154.16,94.89c0-.09,0-.18,0-.26q0-1.59-.08-3.17c0-.35-.05-.69-.08-1,0-.7-.09-1.39-.16-2.08,0-.42-.1-.83-.15-1.24-.07-.61-.14-1.23-.23-1.84-.07-.44-.15-.88-.22-1.32s-.19-1.14-.3-1.71-.2-.91-.3-1.36-.24-1.08-.37-1.61-.24-.92-.37-1.38-.28-1-.44-1.54-.29-.93-.44-1.39-.33-1-.5-1.47-.34-.93-.52-1.39-.36-.93-.55-1.4-.39-.94-.6-1.4-.39-.88-.6-1.32-.44-.94-.67-1.4-.42-.83-.64-1.24-.5-.94-.76-1.41-.44-.77-.67-1.16-.56-1-.85-1.42-.45-.7-.67-1.05-.63-1-1-1.44l-.66-.93c-.35-.5-.71-1-1.08-1.47l-.62-.79c-.41-.52-.81-1-1.23-1.54l-.5-.58c-.48-.56-1-1.11-1.45-1.65l-.21-.22A63.43,63.43,0,0,0,121.85,39.5l-.12-.07q-1.17-.65-2.37-1.26l-.22-.11q-1.18-.59-2.38-1.12l-.28-.12q-1.19-.53-2.41-1l-.31-.12q-1.21-.47-2.45-.89L111,34.7q-1.24-.41-2.51-.78l-.31-.09q-1.28-.36-2.58-.67l-.28-.06q-1.32-.31-2.67-.56l-.23,0c-.92-.17-1.84-.32-2.77-.45l-.13,0q-1.45-.2-2.91-.33c.16.31,17.16,33.3,11.77,67.39A264.8,264.8,0,0,0,154.16,94.89Z"/><path class="cls-11" d="M154,90.05c0-.23,0-.45,0-.68q-.07-.86-.17-1.71-.07-.66-.16-1.31-.11-.85-.24-1.68c-.07-.44-.14-.87-.22-1.3s-.21-1.1-.32-1.64-.18-.87-.28-1.3-.25-1.07-.39-1.6-.23-.86-.35-1.29-.3-1-.46-1.55-.27-.86-.41-1.29-.34-1-.52-1.49-.31-.86-.48-1.29-.38-1-.57-1.42-.36-.87-.55-1.3-.41-.9-.62-1.35-.41-.88-.63-1.31-.43-.85-.65-1.27-.47-.88-.71-1.32-.45-.79-.68-1.18-.53-.9-.8-1.34-.46-.73-.69-1.09-.59-.91-.9-1.36l-.7-1c-.33-.46-.66-.92-1-1.37l-.69-.9c-.37-.47-.74-.93-1.12-1.39l-.68-.79c-.41-.47-.82-.94-1.24-1.4l-.65-.69c-.45-.48-.9-1-1.36-1.42l-.6-.59c-.49-.48-1-1-1.5-1.42l-.55-.5c-.54-.48-1.08-1-1.64-1.42l-.49-.4c-.59-.48-1.18-1-1.79-1.41L128.7,44c-.64-.48-1.28-.94-1.94-1.4l-.34-.23c-.69-.47-1.39-.93-2.1-1.37l-.26-.16q-1.11-.69-2.26-1.33l-.16-.09q-1.2-.67-2.42-1.28l-.06,0A62.81,62.81,0,0,0,96.6,31.71c.14.27,13.41,26,12.8,55.5A269.5,269.5,0,0,0,154,90.05Z"/><path class="cls-12" d="M151.35,75.95c-.17-.56-.35-1.13-.54-1.68-.13-.38-.27-.75-.4-1.12s-.36-1-.54-1.47-.3-.75-.46-1.13-.4-1-.61-1.42L148.3,68q-.34-.72-.69-1.43c-.17-.34-.33-.67-.51-1-.27-.51-.54-1-.82-1.52l-.47-.86c-.36-.63-.74-1.26-1.13-1.88l-.26-.43q-.74-1.18-1.54-2.32l-.15-.21q-.71-1-1.46-2l-.4-.51c-.43-.56-.87-1.11-1.32-1.65l-.46-.55q-.67-.79-1.37-1.56l-.46-.5q-.75-.81-1.53-1.59l-.36-.36q-.93-.92-1.89-1.79l-.07-.07a63.42,63.42,0,0,0-9.11-6.87l-.1-.06q-1.18-.73-2.4-1.41l-.05,0A62.81,62.81,0,0,0,96.6,31.71a133.44,133.44,0,0,1,11.74,38.57c24.4.47,36.83,4.24,43.3,6.61C151.55,76.57,151.44,76.26,151.35,75.95Z"/><path class="cls-13" d="M148.77,69.06l-.29-.65Q147.37,66,146,63.63l-.33-.58q-.52-.89-1.06-1.77l-.37-.59q-.61-.95-1.24-1.88l-.23-.34q-1.58-2.25-3.34-4.36l-.26-.31q-.77-.91-1.57-1.78l-.28-.3A63.7,63.7,0,0,0,131.27,46l-.08-.06Q130.13,45,129,44.18l-.05,0A62.88,62.88,0,0,0,96.6,31.71a133,133,0,0,1,11,33.93c20.54.17,31.63,3.34,41.68,4.59C149.1,69.84,148.94,69.45,148.77,69.06Z"/><path class="cls-14" d="M144.56,61.12l-.12-.2c-.46-.73-.95-1.46-1.44-2.17l-.33-.47q-.65-.92-1.33-1.82l-.24-.32q-.82-1.06-1.67-2.08l-.17-.2q-.8-.94-1.63-1.85l-.25-.27q-1.86-2-3.89-3.86l-.16-.15a62.94,62.94,0,0,0-36.73-16A128.33,128.33,0,0,1,105.45,56c11.17,2.46,24.44,4.79,40,6.61C145.13,62.08,144.85,61.6,144.56,61.12Z"/><path class="cls-15" d="M135.18,49.49c-.37-.36-.75-.71-1.12-1.06l-.77-.72c-.47-.43-1-.84-1.45-1.26l-.75-.63c-.51-.42-1-.83-1.56-1.23l-.71-.55c-.55-.41-1.11-.81-1.67-1.2l-.68-.47c-.59-.4-1.18-.78-1.79-1.16l-.64-.41c-.62-.38-1.26-.75-1.9-1.12l-.6-.34q-1-.55-2-1.06L119,38q-1-.52-2.12-1l-.51-.23q-1.1-.48-2.23-.93l-.45-.18q-1.16-.45-2.34-.85l-.39-.13q-1.22-.41-2.46-.76l-.32-.09c-.86-.24-1.72-.47-2.59-.67l-.23-.05q-1.35-.31-2.72-.57l-.14,0Q101,32.24,99.6,32h0q-1.49-.2-3-.34a119.62,119.62,0,0,1,6.65,16.7A206.56,206.56,0,0,0,135.18,49.49Z"/></g></svg>