<svg xmlns="http://www.w3.org/2000/svg" viewBox="0 0 144.5 231.53"><defs><style>.cls-1{fill:#fd0;}.cls-2{fill:#f8a710;}.cls-3{fill:#df4426;}.cls-4{fill:#ed9721;}.cls-5{fill:#bc7a31;}.cls-6{fill:#e96025;}.cls-7{fill:#b74a2c;}.cls-8{fill:#eee6db;}.cls-9{fill:#d1c6b8;}.cls-10{fill:#b7a697;}.cls-11{fill:#f2961f;}.cls-12{fill:#dff0ff;}</style></defs><title>Artboard 1</title><g id="Objects"><path class="cls-1" d="M59.56,200.78s-11.9-36.8,0-36.8C59.56,164,72.31,163,59.56,200.78Z"/><path class="cls-2" d="M59.6,194.71S51,166,59.6,166C59.6,166,68.71,165.16,59.6,194.71Z"/><path class="cls-3" d="M59.63,189.61s-6.47-22.48,0-22.48C59.63,167.14,66.65,166.53,59.63,189.61Z"/><path class="cls-1" d="M84.56,200.78s-11.9-36.8,0-36.8C84.56,164,97.31,163,84.56,200.78Z"/><path class="cls-2" d="M84.6,194.71S76,166,84.6,166C84.6,166,93.71,165.16,84.6,194.71Z"/><path class="cls-3" d="M84.63,189.61s-6.47-22.48,0-22.48C84.63,167.14,91.65,166.53,84.63,189.61Z"/><path class="cls-1" d="M72.12,219.78s-11.9-36.8,0-36.8C72.12,183,84.87,182,72.12,219.78Z"/><path class="cls-2" d="M72.16,213.71S63.6,185,72.16,185C72.16,185,81.27,184.16,72.16,213.71Z"/><path class="cls-3" d="M72.19,208.61s-6.47-22.48,0-22.48C72.19,186.14,79.21,185.53,72.19,208.61Z"/><path class="cls-4" d="M47.36,117.76S31.73,121,27.6,135.55c-2.86,10.06,6.21,26.92,14.43,33,0,0-5.86-24.48,10.55-29.34Z"/><path class="cls-5" d="M49.77,132.27h1.12l1.7,7C36.17,144.12,42,168.59,42,168.59S27.34,143.18,49.77,132.27Z"/><path class="cls-4" d="M97.14,117.76s15.63,3.25,19.76,17.79c2.86,10.06-6.21,26.92-14.43,33,0,0,5.86-24.48-10.55-29.34Z"/><path class="cls-5" d="M94.73,132.27H93.62l-1.7,7c16.41,4.87,10.55,29.34,10.55,29.34S116.8,145.11,94.73,132.27Z"/><path class="cls-6" d="M87,149.17c-4.61,2-13,3-14.92,3.17-1.87-.19-10.31-1.14-14.92-3.17v8.72a43,43,0,0,0,14.53,2.29h.78A43,43,0,0,0,87,157.88Z"/><path class="cls-7" d="M87,157.88v-8.72a21.15,21.15,0,0,1-2.09.78L78.64,153l-2.11,7A40.14,40.14,0,0,0,87,157.88Z"/><path class="cls-8" d="M99,54.94A71.21,71.21,0,0,0,72.06,20.52,71.21,71.21,0,0,0,45.13,54.94c-5.77,16.15-6.42,32.58,0,59.66s8.72,35.34,8.72,35.34,6.58,3.67,17.59,3.67a48.37,48.37,0,0,0,18.83-3.67s2.29-8.26,8.72-35.34S104.76,71.08,99,54.94Z"/><polygon class="cls-9" points="84.68 48.13 84.68 48.13 84.68 48.13 84.68 48.13"/><path class="cls-9" d="M79.06,153a44.55,44.55,0,0,0,11.21-3.09s2.29-8.26,8.72-35.34,5.77-43.51,0-59.66a66,66,0,0,0-2.88-6.81H84.68C84.71,48.21,100.07,82.89,79.06,153Z"/><path class="cls-10" d="M71.47,112.34c-16.81,0-26.77-2.53-27.47-2.71l-1.15-5.72a149.24,149.24,0,0,0,58.36.21l-1.1,5.47A138.52,138.52,0,0,1,71.47,112.34Z"/><path class="cls-10" d="M71.47,103.91a142.13,142.13,0,0,1-29.09-2.7l-.53-3.36c.25.06,29.32,6.31,60.42,0l-.5,3.19A154.59,154.59,0,0,1,71.47,103.91Z"/><path class="cls-10" d="M100.71,60.31c-32.27-8-57.1-.08-57.3,0l1-3.38c.88-.33,24.9-7.28,55.2-.07Z"/><circle class="cls-11" cx="72.06" cy="78.44" r="18.13"/><circle class="cls-12" cx="72.06" cy="78.44" r="12.62"/><path class="cls-4" d="M97.12,50.31A71.38,71.38,0,0,0,72.06,20.52a71.35,71.35,0,0,0-25.15,30C47,50.45,65.42,43.22,97.12,50.31Z"/><path class="cls-5" d="M84.69,48.13c3.88.49,8,1.19,12.44,2.18l0-.07A72.69,72.69,0,0,0,74.74,22.38l0,0-.54-.4-.06,0-.47-.33-.07,0-.39-.27-.08-.06L72.79,21l-.08-.05-.23-.15-.08,0-.16-.1h0l-.12-.08,0,0S79,28.35,84.68,48.13Z"/><polygon class="cls-5" points="84.68 48.13 84.68 48.13 84.68 48.13 84.68 48.13"/><path class="cls-4" d="M72.91,117.76s-19,21.14,0,61.61C72.91,179.37,90.18,142.05,72.91,117.76Z"/><path class="cls-5" d="M72.91,179.37s17.27-37.32,0-61.61C72.91,117.76,81.06,151.34,72.91,179.37Z"/></g></svg>