<svg xmlns="http://www.w3.org/2000/svg" viewBox="0 0 197.08 192.84"><defs><style>.cls-1{fill:#7189c5;}.cls-2{fill:#56534f;}.cls-3{fill:#3a3835;}.cls-4{fill:#67645d;}.cls-5{fill:#494742;}.cls-6{fill:#afaeac;}.cls-7{fill:#9b9995;}.cls-8{fill:#8e8c88;}</style></defs><title>Artboard 2</title><g id="Objects"><path class="cls-1" d="M176,46.09,132.64,89.48a9.42,9.42,0,0,1-13.31,0L105.27,75.43a9.42,9.42,0,0,1,0-13.31l43.39-43.39a9.42,9.42,0,0,1,13.31,0L176,32.78A9.42,9.42,0,0,1,176,46.09ZM106.75,63.6a7.33,7.33,0,0,0,0,10.35L120.8,88a7.33,7.33,0,0,0,10.35,0l43.39-43.39a7.33,7.33,0,0,0,0-10.35L160.49,20.21a7.33,7.33,0,0,0-10.35,0Z"/><rect class="cls-1" x="97.9" y="49.36" width="78.09" height="2.09" transform="translate(4.47 111.6) rotate(-45)"/><rect class="cls-1" x="105.3" y="56.76" width="78.09" height="2.09" transform="translate(1.4 119) rotate(-45)"/><rect class="cls-1" x="119.88" y="55.52" width="2.09" height="36.61" transform="translate(-16.79 107.11) rotate(-44.99)"/><rect class="cls-1" x="129.74" y="45.66" width="2.09" height="36.61" transform="translate(-6.93 111.19) rotate(-44.99)"/><rect class="cls-1" x="139.6" y="35.8" width="2.09" height="36.61" transform="translate(2.93 115.28) rotate(-44.99)"/><rect class="cls-1" x="149.46" y="25.94" width="2.09" height="36.61" transform="translate(12.81 119.41) rotate(-45.01)"/><rect class="cls-1" x="159.32" y="16.08" width="2.09" height="36.61" transform="translate(22.64 123.45) rotate(-44.99)"/><path class="cls-1" d="M86.3,135.82,42.91,179.2a9.42,9.42,0,0,1-13.31,0L15.55,165.15a9.42,9.42,0,0,1,0-13.31l43.39-43.39a9.42,9.42,0,0,1,13.31,0L86.3,122.51A9.42,9.42,0,0,1,86.3,135.82ZM17,153.32a7.33,7.33,0,0,0,0,10.35l14.05,14.05a7.33,7.33,0,0,0,10.35,0l43.39-43.39a7.33,7.33,0,0,0,0-10.35L70.77,109.93a7.33,7.33,0,0,0-10.35,0Z"/><rect class="cls-1" x="8.18" y="139.09" width="78.09" height="2.09" transform="translate(-85.26 74.44) rotate(-45)"/><rect class="cls-1" x="15.58" y="146.48" width="78.09" height="2.09" transform="translate(-88.32 81.83) rotate(-45)"/><rect class="cls-1" x="30.16" y="145.25" width="2.09" height="36.6" transform="translate(-106.54 70.01) rotate(-45.02)"/><rect class="cls-1" x="40.02" y="135.39" width="2.09" height="36.61" transform="translate(-96.65 74.05) rotate(-45)"/><rect class="cls-1" x="49.88" y="125.53" width="2.09" height="36.61" transform="translate(-86.78 78.11) rotate(-44.99)"/><rect class="cls-1" x="59.74" y="115.67" width="2.09" height="36.61" transform="translate(-76.93 82.22) rotate(-45)"/><rect class="cls-1" x="69.6" y="105.81" width="2.09" height="36.61" transform="translate(-67.06 86.28) rotate(-44.99)"/><circle class="cls-2" cx="133.71" cy="136.89" r="19.3" transform="translate(-57.64 134.65) rotate(-45)"/><path class="cls-3" d="M147.36,123.24a19.3,19.3,0,0,0-23.23-3.09l-4.48,10.55s17.62-6.22,27,11.53l6.32-5.54A19.23,19.23,0,0,0,147.36,123.24Z"/><path class="cls-1" d="M56.35,57.72,46.09,47.46a5.14,5.14,0,1,0-1.82,1.82L54.53,59.53Z"/><path class="cls-4" d="M66.12,102.33l27.3,27.3,3.08,3.08a14.94,14.94,0,0,0,21.13,0l11.89-11.89a15,15,0,0,0,0-21.14l-3.08-3.08L99.15,69.3,83.84,54l-33,33Z"/><path class="cls-5" d="M129.53,99.69l-3.08-3.08L101.69,71.85,91.61,91.14l28,28s4.88,3.89,0,11.53h0l9.88-9.88A15,15,0,0,0,129.53,99.69Z"/><path class="cls-6" d="M83.84,54l-3.19,3.19c5.48-16.51-3.27-30.49-3.27-30.49L50.45,53.63,23.52,80.56s14,8.75,30.49,3.27L50.82,87l22.46,22.46,33-33Z"/><path class="cls-7" d="M91.61,91.14,106.3,76.45,83.84,54l-3.19,3.19c5.48-16.51-3.27-30.49-3.27-30.49l-12,12c2.43,3.63,9.61,16,4.38,29.38Z"/><polygon class="cls-1" points="142.47 143.82 154.19 155.5 152.38 157.3 140.66 145.63 142.47 143.82"/><polygon class="cls-6" points="152.77 133.57 159.08 139.86 136.67 162.17 130.36 155.88 152.77 133.57"/><polygon class="cls-8" points="145.79 140.52 151.84 147.06 159.08 139.86 152.77 133.57 145.79 140.52"/></g></svg>